<svg width="265" height="148" viewBox="0 0 265 148" fill="none" xmlns="http://www.w3.org/2000/svg">
<path d="M85.594 123.364C85.8579 123.364 86 123.557 86 123.932C86 124.307 85.8579 124.5 85.594 124.5H75.9707C75.585 124.5 75.4023 124.307 75.4023 123.932C75.4023 123.557 75.585 123.364 75.9707 123.364C76.0519 123.364 76.1433 123.364 76.255 123.364C76.255 123.182 76.255 123.03 76.255 122.918L68.0529 101.42C66.317 97.5869 63.7082 94.5448 60.2162 92.2936C56.7243 90.0525 52.877 88.9269 48.6846 88.9269C46.1874 88.9269 43.741 89.363 41.3352 90.2249C39.3253 90.9854 37.2342 91.4215 35.0416 91.5229C31.0014 91.5229 27.55 90.1235 24.6874 87.3044C21.8147 84.4651 20.2819 81.0375 20.0992 77.0016L2.72049 122.918C2.60883 123.03 2.60883 123.182 2.72049 123.364C2.72049 123.364 2.7611 123.364 2.8423 123.364C3.21789 123.364 3.41077 123.557 3.41077 123.932C3.41077 124.307 3.21789 124.5 2.8423 124.5H0.568461C0.182721 124.5 0 124.307 0 123.932C0 123.557 0.182721 123.364 0.568461 123.364C1.02526 123.263 1.40085 122.979 1.70538 122.512L26.6771 56.6394C28.0271 53.1003 30.4228 50.5753 33.864 49.0542C37.3255 47.5129 40.7769 47.4216 44.2181 48.7703C46.2179 49.5308 47.8928 50.626 49.2531 52.0558L39.1832 25.3659C38.9091 24.8791 38.5335 24.6357 38.0463 24.6357C37.6605 24.6357 37.4778 24.4532 37.4778 24.0679C37.4778 23.6927 37.6605 23.5 38.0463 23.5H46.3702C46.6645 23.5 46.8574 23.6521 46.9386 23.9462L84.4164 122.512C84.5992 122.979 84.995 123.263 85.594 123.364ZM48.6846 87.7912C55.7498 87.7912 61.4851 90.5088 65.9009 95.9442L51.2427 57.3695C51.2427 57.3695 51.2021 57.3188 51.1209 57.2072C49.8723 53.6682 47.4766 51.2344 43.9339 49.906C40.6856 48.6689 37.4778 48.7297 34.3107 50.1088C31.1435 51.488 28.9306 53.8203 27.6922 57.0855L22.0888 71.8502C21.5203 73.3916 21.2361 75.0141 21.2361 76.7177C21.2361 80.4494 22.576 83.6538 25.2559 86.3309C27.9358 89.008 31.1943 90.3466 35.0416 90.3466C37.0413 90.2655 39.0005 89.8497 40.9292 89.0892C43.4162 88.2272 46.0047 87.7912 48.6846 87.7912Z" fill="#19381F"/>
<path d="M124.662 107.612C133.944 107.612 141.084 104.348 148.428 95.474L161.586 105.47C163.728 107 165.768 107.306 167.91 107.306H176.886C167.502 104.348 159.648 96.29 151.896 90.476C156.486 84.56 158.73 71.606 163.626 69.464L146.592 68.648C149.856 70.178 153.936 72.218 153.936 76.91C153.936 81.704 151.794 86.192 150.162 89.048C131.7 73.85 115.176 57.326 115.176 48.044C115.176 40.904 120.378 36.518 127.11 36.518C135.78 36.518 138.636 46.82 137.208 53.858C139.758 51.818 140.88 49.268 140.88 46.82C140.982 40.496 134.352 35.192 127.11 35.192C118.134 35.192 110.892 41.516 110.892 49.982C110.892 54.674 113.136 59.162 115.278 62.528C105.792 66.71 100.08 75.482 100.08 85.376C100.896 98.942 110.28 107.612 124.662 107.612ZM106.608 83.03C106.608 76.094 110.28 68.75 116.4 64.058C121.194 70.076 128.028 78.644 146.796 94.148C141.492 100.88 134.862 105.164 127.314 105.164C115.788 105.164 106.608 95.168 106.608 83.03Z" fill="#19381F"/>
<path d="M212.57 23.5C219.75 23.5 226.46 24.8257 232.721 27.4568C239.003 30.098 244.53 33.7387 249.324 38.3889C254.106 43.0188 257.829 48.3625 260.5 54.42C263.193 60.4878 264.539 67.0144 264.539 74C264.539 80.9958 263.193 87.5224 260.5 93.58C257.829 99.6477 254.106 105.002 249.324 109.652C244.53 114.302 239.003 117.953 232.721 120.584C226.46 123.195 219.75 124.5 212.57 124.5C206.452 124.5 200.924 122.664 196.009 118.993C191.083 115.301 187.769 110.539 186.056 104.716V123.929C186.056 124.306 185.862 124.5 185.485 124.5H177.571C177.184 124.5 177 124.306 177 123.929C177 123.552 177.184 123.358 177.571 123.358C177.948 123.358 178.142 123.174 178.142 122.787V25.2132C178.142 24.8359 177.948 24.6422 177.571 24.6422C177.184 24.6422 177 24.4586 177 24.0711C177 23.6938 177.184 23.5 177.571 23.5H212.57ZM186.056 24.6422V96.8025C186.056 101.697 187.249 106.164 189.645 110.182C192.032 114.18 195.234 117.382 199.231 119.768C203.249 122.165 207.696 123.358 212.57 123.358C218.414 123.358 223.89 122.093 229.009 119.564C234.118 117.035 238.606 113.507 242.471 108.958C246.356 104.39 249.405 99.1276 251.608 93.1721C253.811 87.1961 254.912 80.802 254.912 74C254.912 67.2082 253.811 60.8243 251.608 54.8687C249.405 48.8928 246.356 43.6307 242.471 39.0824C238.606 34.5443 234.118 31.0057 229.009 28.4766C223.89 25.9271 218.414 24.6422 212.57 24.6422H186.056Z" fill="#19381F"/>
</svg>
